# xmcd CD database file
#
# Track frame offsets:
#	150
#	11767
#	21520
#	40725
#	51875
#	65060
#	77822
#	92092
#	102590
#	114645
#	126685
#	142660
#	155872
#	166325
#	179447
#	191720
#	201597
#	215877
#	229205
#	241165
#
# Disc length: 3390 seconds
#
# Revision: 0
# Processed by: cddbd v1.4PL0 Copyright (c) Steve Scherf et al.
# Submitted via: CDex 1.50beta10
#
DISCID=340d3c14
DTITLE=Various Artist - First Ladies of Country
DYEAR=1980
DGENRE=Country
TTITLE0=Don't it make my brown eyes blue - Crystal Gayle
TTITLE1=Snowbird - Lynn Anderson
TTITLE2=Ode to Billy Joe - Tammy Wynette
TTITLE3=Dumb Blonde - Dolly Parton
TTITLE4=Delta Dawn - Tanya Tucker
TTITLE5='57 Chevrolet -  Billie Jo Spears
TTITLE6=No Charge Tammy Wynette
TTITLE7=It's only make believe - Lynn Anderson
TTITLE8=Fuel to the Blame - Dolly Parton
TTITLE9=Stand by your Man - Tammy Wynette
TTITLE10=Blanket on the Ground - Billie Jo Spears
TTITLE11=DIVORCE - Tammy Wynette
TTITLE12=Wrong road again - Crystal Gayle
TTITLE13=Honey Come Back - Lynn Anderson
TTITLE14=You are so beautiful - Tanya Tucker
TTITLE15=Your Ole Handyman - Dolly Parton
TTITLE16=A little bit More - Lynn Anderson
TTITLE17=Let me be there - Tanya Tucker
TTITLE18=There goes my everything - Tammy Wynette
TTITLE19=I never promised you a rose garden - Lynn Anderson
EXTD=YEAR: 1980
EXTT0=
EXTT1=
EXTT2=
EXTT3=
EXTT4=
EXTT5=
EXTT6=
EXTT7=
EXTT8=
EXTT9=
EXTT10=
EXTT11=
EXTT12=
EXTT13=
EXTT14=
EXTT15=
EXTT16=
EXTT17=
EXTT18=
EXTT19=
PLAYORDER=
